<?xml version="1.0" encoding="utf-8"?>
<!-- Generator: Adobe Illustrator 19.0.1, SVG Export Plug-In . SVG Version: 6.00 Build 0)  -->
<svg version="1.1" id="Layer_1" xmlns="http://www.w3.org/2000/svg" xmlns:xlink="http://www.w3.org/1999/xlink" x="0px" y="0px"
	 viewBox="0 0 24 24" style="enable-background:new 0 0 24 24;" xml:space="preserve">
<style type="text/css">
	.st0{fill:#1E232D;}
</style>
<g>
	<g>
		<rect x="11" y="-1" transform="matrix(0.8137 0.5812 -0.5812 0.8137 9.1272 -4.764)" class="st0" width="2" height="25.7"/>
	</g>
</g>
<path class="st0" d="M8,12c0.1,0,0.1,0,0.2,0l1.9-2.6C9.5,9.7,8.8,10,8,10c-2.2,0-4-1.8-4-4c0-2.2,1.8-4,4-4c2.2,0,4,1.8,4,4
	c0,0.3,0,0.6-0.1,0.9l1.9-2.6C13,1.8,10.7,0,8,0C4.7,0,2,2.7,2,6C2,9.3,4.7,12,8,12z M15.6,12l-1.5,2.1c0.3-0.1,0.6-0.1,0.9-0.1
	c2.2,0,4,1.8,4,4c0,2.2-1.8,4-4,4c-2.1,0-3.8-1.6-3.9-3.6l-1.5,2.1c0.9,2.1,3,3.5,5.5,3.5c3.3,0,6-2.7,6-6
	C21,14.9,18.6,12.3,15.6,12z M18.6,0.8L3.7,21.7l1.6,1.2L20.3,2L18.6,0.8z"/>
</svg>
