<?xml version="1.0" ?>
<svg version="1.0" xmlns="http://www.w3.org/2000/svg"
 width="800.000000pt" height="800.000000pt" viewBox="0 0 800.000000 800.000000"
 preserveAspectRatio="xMidYMid meet">
<metadata>
Created by potrace 1.13, written by Peter Selinger 2001-2015
</metadata>
<g transform="translate(0.000000,800.000000) scale(0.100000,-0.100000)"
fill="#000000" stroke="none">
<path d="M4350 7281 c-264 -21 -614 -146 -860 -306 -75 -48 -234 -173 -320
-249 -71 -63 -270 -266 -270 -276 0 -5 26 2 58 14 31 12 77 27 102 34 44 10
222 29 345 35 109 6 508 -11 625 -27 390 -54 944 -212 1430 -411 287 -116 644
-333 833 -505 281 -257 415 -491 443 -773 6 -59 9 -67 16 -47 36 96 53 536 28
695 -6 39 -15 101 -21 140 -20 132 -110 367 -195 506 -81 134 -222 308 -374
460 -133 133 -176 170 -309 258 -327 218 -727 377 -1087 431 -159 24 -316 31
-444 21z"/>
<path d="M3150 5464 c-14 -2 -78 -6 -142 -10 -100 -5 -118 -9 -119 -22 0 -11
-2 -12 -6 -4 -5 14 -51 16 -72 3 -8 -5 -11 -16 -7 -28 10 -31 -13 -42 -87 -43
-100 -3 -117 -4 -117 -12 0 -4 -9 -10 -20 -13 -30 -10 -59 -43 -86 -100 -32
-68 -31 -81 11 -96 38 -14 44 -29 19 -50 -14 -11 -64 -100 -64 -114 0 -3 5 -5
10 -5 6 0 10 7 10 16 0 8 13 35 30 58 29 44 58 65 57 43 -1 -40 4 -49 22 -44
21 5 35 -15 21 -29 -5 -5 -5 -15 0 -24 8 -12 10 -10 11 10 1 14 1 29 0 33 -1
4 8 3 19 -3 11 -6 20 -17 20 -25 0 -8 4 -15 10 -15 5 0 7 -7 4 -15 -4 -8 -12
-15 -19 -15 -7 0 -34 -19 -60 -42 -36 -33 -48 -51 -51 -78 -2 -19 -6 -52 -10
-72 -5 -32 -3 -38 11 -38 15 0 16 -14 14 -147 l-3 -148 31 -32 c33 -36 40 -37
231 -33 l82 1 -83 -83 c-81 -81 -147 -185 -147 -234 0 -11 -9 -30 -20 -44 -26
-33 -25 -64 4 -125 32 -68 95 -128 177 -168 38 -18 66 -37 62 -40 -3 -4 1 -7
10 -7 12 0 17 -9 17 -30 0 -16 -4 -30 -10 -30 -5 0 -6 -8 -3 -17 5 -12 2 -15
-10 -10 -9 3 -17 2 -17 -3 0 -5 -11 -12 -25 -16 -14 -3 -25 -10 -25 -16 0 -5
-4 -7 -10 -3 -12 8 -51 -26 -43 -38 4 -6 1 -7 -6 -2 -8 4 -21 -2 -32 -14 -11
-12 -25 -18 -31 -15 -7 5 -9 2 -6 -8 4 -8 -8 -31 -26 -52 -27 -33 -38 -38 -76
-40 l-45 -1 -6 -100 c-3 -55 -6 -90 -7 -77 -1 12 -6 22 -12 22 -6 0 -10 -34
-10 -81 l0 -81 30 7 c30 7 30 6 30 -39 0 -26 5 -46 10 -46 7 0 8 -6 2 -17 -12
-20 3 -79 29 -112 11 -13 19 -30 19 -37 0 -8 5 -14 11 -14 6 0 9 -7 5 -15 -3
-8 -1 -15 5 -15 6 0 7 -5 3 -11 -4 -8 0 -8 15 0 17 10 21 9 21 -4 0 -9 4 -14
9 -11 8 5 20 -40 26 -94 1 -8 7 -25 13 -37 10 -18 9 -25 -4 -37 -14 -15 -14
-16 0 -16 9 0 16 -7 16 -15 0 -8 6 -14 13 -13 6 2 12 -6 13 -17 1 -31 15 -55
32 -55 13 0 12 -4 -4 -22 -10 -13 -12 -17 -4 -10 17 14 34 16 25 2 -3 -6 0
-10 8 -10 17 0 30 -27 17 -35 -4 -3 -11 1 -13 7 -4 9 -6 9 -6 -1 -1 -8 9 -25
21 -38 17 -19 19 -23 5 -17 -9 3 -17 10 -17 15 0 6 -6 4 -14 -3 -8 -7 -11 -15
-7 -18 4 -3 11 -13 14 -24 6 -14 3 -17 -8 -12 -21 8 -19 -4 8 -32 12 -14 15
-22 7 -18 -8 5 0 -4 18 -19 20 -17 32 -35 32 -51 0 -14 4 -22 10 -19 5 3 15
-3 22 -15 7 -11 17 -20 23 -20 5 0 28 -20 50 -45 26 -30 54 -50 85 -59 54 -18
182 -36 252 -36 28 0 48 -3 45 -7 -4 -3 -1 -13 6 -21 9 -12 9 -16 0 -19 -10
-4 -9 -9 3 -20 8 -9 13 -24 11 -35 -3 -10 -1 -16 4 -12 5 3 10 -4 10 -15 2
-29 3 -33 17 -59 7 -12 10 -28 6 -34 -4 -7 -3 -8 4 -4 12 7 14 -1 16 -66 0
-14 4 -24 8 -22 3 2 9 -9 13 -26 4 -16 10 -30 14 -30 4 0 8 -9 9 -20 1 -11 3
-29 4 -40 1 -11 6 -20 11 -20 4 0 6 -4 2 -9 -3 -5 -1 -12 4 -16 6 -3 8 -12 4
-20 -3 -8 0 -15 7 -15 7 0 10 -7 6 -15 -3 -8 -1 -15 5 -15 6 0 9 -6 6 -14 -3
-8 -1 -16 4 -18 5 -2 11 -14 12 -26 1 -18 6 -23 23 -19 16 3 24 -2 27 -15 6
-21 -3 -23 -22 -6 -12 11 -13 9 -6 -7 4 -11 9 -33 10 -50 1 -16 7 -40 13 -52
7 -13 8 -23 2 -25 -6 -2 -6 -17 1 -43 8 -29 8 -40 0 -43 -6 -2 -9 -7 -6 -12 3
-4 -12 -4 -32 0 -31 7 -40 6 -52 -9 -14 -17 -17 -17 -38 -4 -13 9 -23 11 -23
5 0 -5 -7 -12 -14 -15 -10 -4 -13 -1 -9 8 4 12 -2 14 -28 8 -19 -3 -38 -12
-42 -20 -4 -7 -13 -13 -19 -13 -6 0 -5 6 3 16 11 14 9 15 -16 12 -24 -2 -30
-8 -32 -31 -2 -23 1 -26 12 -17 9 7 15 8 19 1 4 -6 13 -8 21 -5 10 4 13 -1 9
-20 -5 -28 10 -36 20 -11 3 8 0 15 -6 15 -7 0 -6 5 2 15 9 11 10 15 1 15 -8 0
-7 6 3 16 17 17 36 11 36 -12 0 -8 6 -14 13 -14 6 0 4 -5 -6 -11 -13 -8 -17
-18 -13 -35 6 -24 -1 -29 -33 -24 -8 1 -21 -6 -28 -16 -12 -17 -14 -16 -33 1
-16 14 -23 16 -32 7 -9 -9 -8 -12 6 -12 15 0 16 -3 6 -15 -7 -9 -10 -19 -6
-22 4 -4 11 -1 16 7 7 12 12 12 22 2 9 -9 9 -12 0 -12 -9 0 -10 -5 -3 -17 5
-10 7 -35 6 -55 -2 -22 1 -38 7 -38 6 0 4 -7 -3 -17 -9 -10 -14 -40 -14 -78 0
-51 3 -61 15 -57 12 5 13 3 3 -10 -7 -8 -9 -19 -5 -23 4 -5 2 -5 -5 -1 -9 5
-12 -2 -10 -24 2 -27 8 -34 29 -31 4 0 5 -6 2 -14 -5 -13 -8 -13 -21 0 -8 8
-19 15 -24 15 -5 0 -9 5 -9 11 0 5 4 7 10 4 6 -4 7 1 3 11 -6 16 -8 15 -17 -5
-9 -20 -6 -26 16 -43 18 -12 25 -25 21 -35 -5 -12 -3 -14 8 -8 8 5 5 -1 -5
-13 -12 -14 -15 -22 -7 -22 7 0 11 -6 8 -12 -2 -7 0 -26 4 -41 7 -25 6 -27
-12 -22 -17 6 -19 3 -14 -19 3 -14 7 -37 10 -51 3 -14 2 -25 -3 -25 -5 0 -9
-6 -10 -12 -1 -7 -4 -33 -7 -56 -4 -30 -3 -42 4 -37 20 12 11 -8 -15 -31 -29
-28 -34 -29 -34 -9 0 8 -4 15 -10 15 -5 0 -10 -9 -10 -19 0 -10 -9 -29 -19
-42 l-19 -24 3 45 3 45 -13 -30 c-8 -16 -14 -37 -15 -46 0 -23 -11 -30 -27
-18 -10 9 -13 7 -13 -10 0 -19 -10 -26 -32 -22 -5 0 -8 -4 -8 -9 0 -6 5 -10
11 -10 5 0 8 -4 5 -9 -13 -20 -63 -7 -108 27 -27 20 -48 40 -48 44 0 9 79 60
143 93 20 11 37 23 37 27 0 4 -18 17 -40 29 -28 16 -36 25 -28 31 10 6 8 8 -4
8 -24 0 -31 16 -8 17 10 1 24 -5 31 -13 6 -8 16 -14 22 -14 5 0 2 9 -8 20 -10
11 -15 23 -12 27 4 3 7 1 7 -5 0 -13 37 -10 68 7 13 7 26 10 29 7 3 -3 12 2
20 10 15 14 21 33 22 66 1 10 4 17 9 17 24 -4 27 9 27 114 0 93 2 111 15 109
11 -3 11 1 -3 16 -15 16 -17 44 -17 232 0 189 2 216 17 233 17 18 17 19 0 32
-13 9 -15 20 -11 44 4 20 3 31 -5 31 -6 0 -11 -5 -11 -11 0 -7 -6 -17 -14 -23
-16 -13 -487 -609 -538 -681 -88 -123 -126 -237 -135 -397 l-6 -118 90 0 90 0
-8 43 c-4 23 -8 51 -8 62 0 35 16 -5 23 -58 5 -29 12 -47 21 -47 11 0 11 10
-1 60 -20 85 -32 170 -25 170 11 0 55 -34 94 -72 21 -21 33 -38 25 -38 -7 0 1
-9 17 -20 17 -11 36 -20 43 -20 7 0 35 -18 61 -40 l47 -40 272 0 271 0 25 33
c15 19 26 39 26 46 0 7 10 23 23 36 12 13 42 55 67 94 25 39 48 71 53 71 4 0
7 5 7 11 0 5 16 31 35 56 19 25 35 42 35 36 0 -5 -6 -15 -12 -23 -11 -12 -10
-12 5 -1 9 7 17 18 17 24 0 17 34 36 46 26 7 -5 11 -4 11 6 0 8 -4 12 -9 9 -4
-3 -8 0 -8 5 0 6 4 11 9 11 6 0 8 10 6 22 -3 12 -1 25 3 28 18 14 52 71 47 80
-3 6 0 10 8 10 8 0 30 19 48 42 94 117 117 132 121 81 1 -16 2 -37 3 -48 1
-11 -5 -28 -13 -38 -10 -10 -11 -17 -4 -17 9 0 9 -6 0 -25 -14 -30 -34 -32
-43 -4 -4 11 -9 18 -11 16 -3 -2 3 -21 12 -41 10 -19 15 -39 11 -42 -10 -10
-34 20 -29 36 4 11 0 11 -15 -3 -20 -18 -35 -61 -25 -72 3 -2 11 3 18 13 9 13
9 19 1 24 -8 5 -7 8 4 8 19 0 31 -22 21 -37 -4 -5 -16 -15 -27 -22 -18 -11
-18 -12 7 -7 15 4 30 1 34 -6 4 -7 3 -8 -4 -4 -6 4 -18 -6 -27 -24 -14 -27
-14 -32 -1 -46 14 -13 12 -20 -18 -67 -18 -29 -61 -97 -96 -152 -35 -55 -70
-110 -78 -123 -9 -14 -10 -22 -3 -22 6 0 26 23 44 52 53 85 119 192 171 277
l50 81 55 -1 c31 0 99 0 151 0 52 0 102 1 110 1 8 0 81 1 163 2 91 2 149 -1
152 -7 3 -7 7 -7 10 0 3 6 26 9 52 8 27 -1 60 -2 75 -2 27 -1 27 -1 -15 -41
-33 -30 -44 -36 -52 -26 -5 7 -16 11 -23 8 -10 -3 -8 -8 5 -17 17 -13 8 -24
-104 -136 -68 -67 -123 -117 -123 -110 0 6 -5 11 -11 11 -5 0 -7 -6 -3 -12 6
-10 4 -10 -7 0 -16 15 -29 16 -29 1 0 -5 6 -7 13 -3 6 4 3 -2 -7 -14 -23 -27
-25 -27 -19 -3 7 27 -15 36 -38 15 -17 -16 -22 -16 -31 -4 -8 12 -9 12 -4 -2
3 -12 0 -18 -9 -18 -9 0 -12 -6 -9 -15 4 -10 2 -13 -8 -10 -9 4 -14 -1 -14
-13 0 -17 10 -19 101 -20 l100 -2 70 68 c39 37 212 204 385 372 173 167 392
379 485 470 94 92 304 297 468 455 297 289 298 289 278 309 -18 18 -22 18 -38
4 -33 -28 -40 -29 -40 -4 0 29 -31 76 -49 76 -17 0 -17 2 1 -49 15 -43 6 -57
-13 -18 -17 35 -45 101 -45 107 1 3 -6 11 -14 19 -13 12 -14 11 -9 -10 7 -24
7 -24 -9 -4 -16 19 -16 19 -12 -12 3 -17 8 -36 11 -42 3 -5 3 -11 -1 -14 -5
-2 -2 -2 5 -1 16 4 15 -11 -2 -25 -12 -10 -17 -6 -26 26 -22 74 -28 103 -19
97 5 -3 9 -1 9 5 0 5 -5 11 -12 13 -14 5 -2 28 15 28 7 0 6 -4 -3 -10 -12 -8
-12 -10 -1 -10 8 0 11 -7 8 -19 -4 -17 -2 -18 14 -8 21 13 33 37 19 37 -6 0
-10 -5 -10 -12 0 -6 -3 -8 -6 -5 -4 4 -1 13 6 22 9 11 9 15 1 15 -10 0 -32 40
-35 62 -1 3 -4 9 -8 13 -9 9 -5 -16 5 -32 4 -7 3 -23 -4 -35 -12 -22 -12 -22
-19 -3 -4 11 -4 21 1 23 5 2 2 13 -6 26 -11 17 -14 59 -14 191 1 94 -1 233 -4
310 -11 292 18 457 158 885 l57 175 51 41 c29 23 66 45 83 48 17 4 47 21 68
37 62 52 227 287 279 398 30 64 31 70 31 211 1 173 -8 203 -78 283 -69 80
-117 107 -190 107 -54 0 -173 -27 -212 -48 -10 -6 -53 -23 -95 -37 l-76 -27
-364 203 c-393 218 -749 401 -924 474 -129 55 -399 145 -538 180 -241 62 -436
93 -626 101 -180 7 -183 7 -177 -13 9 -29 -12 -41 -66 -40 -25 1 -44 -1 -41
-5 6 -11 -5 -10 -29 3 -18 9 -20 9 -15 -4 3 -9 -1 -18 -9 -21 -9 -3 -18 2 -21
12 -4 9 -15 26 -25 36 -10 11 -18 23 -18 28 0 8 -18 8 -70 2z m1645 -794 c32
-12 145 -119 145 -137 0 -7 8 -13 18 -13 9 0 23 -9 30 -20 7 -11 22 -20 35
-20 22 0 22 0 -3 -20 -14 -11 -30 -20 -37 -20 -6 0 -13 -3 -15 -8 -1 -4 -37
-25 -78 -46 -116 -60 -184 -98 -194 -107 -11 -10 -43 -13 -33 -3 8 8 -11 27
-42 43 -17 10 -22 10 -16 1 10 -16 -27 4 -51 27 -16 16 -16 16 -10 -4 10 -30
-22 -39 -48 -14 -17 17 -18 22 -6 38 13 17 13 17 -5 1 -18 -16 -18 -19 -2 -36
22 -24 21 -35 -2 -27 -11 3 -22 1 -26 -5 -3 -5 -14 -10 -23 -10 -9 0 -26 -7
-37 -16 -17 -13 -18 -16 -5 -24 10 -7 11 -10 2 -10 -7 0 -15 7 -18 15 -4 8
-10 13 -14 10 -5 -3 -11 -1 -15 5 -3 5 2 10 12 10 16 1 16 2 2 13 -9 7 -15 20
-13 30 2 15 0 16 -13 6 -12 -10 -16 -10 -24 2 -8 12 -10 12 -19 -1 -9 -13 -11
-13 -20 0 -5 8 -10 21 -10 28 0 6 -4 12 -10 12 -5 0 -10 -7 -10 -15 0 -19 -5
-19 -38 2 -39 25 -52 40 -44 48 4 4 0 6 -8 4 -21 -4 -60 10 -60 23 0 6 7 7 18
3 9 -5 55 -8 102 -7 71 0 97 5 155 30 102 43 225 106 296 152 34 22 66 37 72
33 6 -4 7 -1 2 7 -6 10 -4 12 8 7 9 -3 16 -3 16 1 -4 24 0 26 36 12z m-1760
-208 c-3 -9 0 -12 8 -9 15 6 16 -20 3 -42 -5 -8 -4 -16 4 -21 8 -5 7 -9 -4
-13 -9 -4 -16 -11 -16 -16 0 -6 8 -7 17 -4 14 5 13 1 -6 -25 -12 -18 -20 -32
-17 -32 3 0 -6 -16 -19 -36 -14 -20 -25 -43 -25 -50 0 -8 -4 -14 -8 -14 -4 0
-14 -17 -21 -37 -8 -21 -22 -50 -33 -65 -11 -16 -16 -32 -13 -38 4 -6 -8 -10
-30 -10 -20 0 -34 -4 -31 -8 3 -5 -12 -8 -32 -8 -31 1 -37 -3 -40 -23 -2 -15
0 -21 7 -17 6 4 11 0 11 -8 0 -8 7 -22 17 -31 14 -14 14 -18 2 -26 -28 -17
-46 -8 -87 42 -47 58 -47 67 -2 159 42 83 84 135 150 186 33 26 75 72 95 103
24 37 43 57 56 57 13 0 18 -5 14 -14z m205 -194 c6 -8 42 -16 78 -17 21 -1 22
-5 20 -53 -2 -62 8 -98 28 -98 8 0 14 -4 14 -10 0 -5 -4 -10 -10 -10 -5 0 -7
-7 -4 -15 4 -8 10 -15 16 -15 5 0 7 4 4 9 -11 16 5 40 21 34 11 -4 14 -2 9 5
-4 7 -2 12 4 12 6 0 10 -8 8 -17 -2 -11 2 -17 10 -15 10 2 10 -2 2 -18 -7 -13
-7 -20 0 -20 5 0 10 5 10 10 0 10 102 14 112 4 3 -3 4 -13 1 -24 -6 -23 -88
-33 -105 -12 -9 10 -13 10 -19 1 -9 -15 -23 26 -14 43 3 7 -1 3 -10 -9 -14
-18 -21 -20 -43 -12 -15 6 -28 10 -29 10 -18 -5 -23 2 -12 16 12 15 11 14 -13
-1 -24 -16 -29 -16 -49 -3 -12 9 -28 13 -35 10 -8 -3 -29 -2 -48 1 -29 6 -33
10 -29 29 6 22 6 22 -16 -2 -14 -16 -21 -19 -21 -10 0 8 5 20 12 27 6 6 13 17
15 24 20 94 42 137 70 134 10 0 20 -4 23 -8z m-410 -1198 c10 -14 17 -17 27
-8 10 8 12 7 8 -4 -4 -10 1 -17 15 -21 17 -4 20 -2 16 10 -5 12 -2 13 11 8 10
-5 28 -8 41 -8 12 1 22 -3 22 -8 0 -5 5 -9 12 -9 7 0 22 -10 33 -22 11 -13 31
-32 44 -43 l24 -20 -11 22 c-7 12 -17 23 -24 26 -7 2 -10 7 -7 10 3 4 20 -7
38 -23 18 -17 26 -31 19 -31 -89 -10 -88 -10 -136 36 -47 45 -62 54 -62 35 0
-16 -15 -12 -46 15 -48 41 -38 20 19 -40 41 -43 56 -53 60 -41 4 10 1 13 -9 9
-7 -3 -14 0 -14 6 0 6 6 11 13 12 6 1 1 4 -13 8 -21 6 -22 8 -8 14 12 4 30 -5
55 -28 36 -33 41 -62 6 -34 -9 8 -14 9 -11 4 4 -6 -9 -10 -32 -10 -26 0 -36 3
-33 12 4 9 0 11 -11 7 -10 -4 -15 -13 -12 -21 3 -8 2 -12 -3 -8 -5 3 -16 2
-24 -1 -19 -7 -11 -33 16 -53 10 -7 16 -19 13 -26 -3 -8 0 -16 7 -18 7 -2 0
-4 -15 -4 -16 0 -28 3 -28 7 0 4 -15 6 -32 5 -42 -3 -58 3 -58 22 0 16 -47 70
-55 62 -3 -3 6 -18 19 -32 15 -16 20 -27 12 -27 -16 0 -39 25 -61 69 -30 60
-36 92 -20 108 8 8 15 12 15 8 0 -3 10 0 22 6 37 20 88 29 88 15 0 -6 13 -20
29 -31 16 -10 28 -22 25 -26 -2 -4 0 -10 6 -14 19 -11 10 20 -10 38 -25 21
-26 39 -2 30 15 -6 15 -5 3 10 -7 9 -9 17 -4 17 5 0 15 -9 23 -20z"/>
<path d="M6495 1686 c-16 -18 -185 -182 -375 -366 -564 -546 -1004 -974 -1185
-1152 l-170 -168 64 0 c61 0 66 2 110 42 111 102 1671 1621 1671 1627 0 6 -58
40 -80 47 -3 1 -18 -13 -35 -30z"/>
<path d="M6674 1542 c-64 -22 -81 -36 -239 -191 -71 -70 -355 -345 -630 -611
-275 -266 -558 -542 -630 -612 l-130 -128 630 0 630 0 105 156 c356 525 429
599 742 749 122 58 269 115 374 145 l66 19 130 -65 c114 -56 164 -86 256 -151
22 -15 22 -15 22 25 0 30 -5 43 -22 54 -55 36 -587 316 -621 328 -21 6 -55 10
-75 8 -28 -3 -49 3 -92 27 -186 107 -202 118 -188 127 9 7 7 8 -7 4 -25 -7
-36 1 -55 39 -21 40 -121 94 -175 94 -22 0 -63 -8 -91 -17z"/>
<path d="M3223 1371 c-23 -17 -77 -72 -120 -123 -43 -50 -156 -182 -252 -292
-289 -335 -398 -485 -456 -630 -37 -91 -65 -212 -65 -281 l0 -45 54 0 53 0 6
83 c14 193 90 349 290 598 78 97 231 287 340 422 162 201 198 250 195 272 l-3
27 -42 -31z"/>
<path d="M2695 1032 c-121 -60 -358 -175 -527 -257 -170 -82 -308 -154 -308
-160 0 -6 -12 -18 -27 -27 -42 -25 -151 -135 -222 -224 -50 -62 -205 -285
-245 -351 -6 -10 81 -13 421 -13 l429 0 12 81 c35 219 141 409 382 684 53 61
123 142 155 180 32 39 83 98 113 133 30 34 51 62 46 62 -5 -1 -108 -49 -229
-108z"/>
<path d="M7465 944 c-331 -121 -520 -228 -628 -357 -47 -56 -417 -572 -417
-581 0 -3 33 -6 74 -6 l74 0 23 38 c13 20 88 136 168 257 119 182 161 237 240
315 123 123 216 171 541 284 l102 36 66 -26 c69 -27 174 -85 250 -136 l42 -29
0 28 c0 22 -9 33 -43 52 -101 56 -265 143 -303 160 l-41 19 -148 -54z"/>
<path d="M7604 815 c-125 -37 -332 -120 -403 -162 -93 -55 -172 -147 -344
-401 -85 -125 -157 -233 -161 -240 -6 -9 127 -12 649 -12 l656 0 -2 255 c0
151 -5 253 -10 249 -5 -3 -16 2 -25 11 -9 9 -23 14 -30 11 -8 -3 -14 -1 -14 4
0 12 -26 13 -33 3 -2 -5 -2 -2 -1 5 2 6 -2 13 -9 14 -13 1 -29 5 -37 8 -3 1
-12 3 -20 5 -8 1 -42 10 -75 19 -40 10 -61 12 -66 5 -4 -7 -12 -4 -23 6 -9 9
-28 18 -44 19 -33 4 -87 25 -80 32 9 9 151 32 164 27 8 -3 14 0 14 6 0 34 145
-19 253 -93 l37 -25 0 58 0 58 -59 41 c-65 46 -216 122 -240 121 -9 0 -53 -11
-97 -24z"/>
<path d="M1634 579 c-33 -8 -54 -23 -106 -82 -140 -157 -251 -307 -332 -450
l-28 -48 48 3 47 3 57 95 c82 134 184 268 296 388 99 105 99 109 18 91z"/>
<path d="M1195 255 c-22 -7 -132 -41 -245 -75 -198 -59 -298 -102 -363 -157
l-29 -23 261 0 261 0 22 36 c13 21 51 79 86 131 34 52 62 96 62 99 0 6 -10 4
-55 -11z"/>
</g>
</svg>
