<svg width="500" viewBox="0 0 50 37.375">
    <g class="shot-chart-court">
        <rect class="shot-chart-court-key" x="17" y="18.375" width="16" height="19"></rect>
        <rect x="0" y="0" width="50" height="47"></rect>
        <line class="shot-chart-court-baseline" x1="0" y1="37.375" x2="50" y2="37.375"></line>
        <path d="M-21.893520439698552,-9.205230184873257L-21.757638074132714,-9.49502319187098C-21.621755708566873,-9.7848161988687,-21.349990977435198,-10.364402212864146,-21.05525711188018,-10.932062463573214C-20.760523246325167,-11.49972271428228,-20.442820246346816,-12.055457201704968,-20.103186723471723,-12.597449159098744C-19.763553200596633,-13.13944111649252,-19.401989154824797,-13.667690543857384,-19.01967658502172,-14.180470526608907C-18.637364015218647,-14.693250509360432,-18.234302921384337,-15.190561047498615,-17.811810961513856,-15.670776369604106C-17.389319001643372,-16.150991691709592,-16.947396175736717,-16.614111797782392,-16.487487185735276,-17.05862268927543C-16.027578195733838,-17.50313358076847,-15.549683041637609,-17.929035257681754,-15.0553640235054,-18.334935393248237C-14.561045005373188,-18.74083552881472,-14.050302123204993,-19.12673412303441,-13.524805060461732,-19.491369624306962C-12.999307997718471,-19.85600512557952,-12.459056754400141,-20.199377533904944,-11.90581748055445,-20.520364321194972C-11.35257820670876,-20.841351108485,-10.786350902335705,-21.13995227473963,-10.20898663653138,-21.41519165475694C-9.631622370727053,-21.690431034774246,-9.043121143491454,-21.94230862855423,-8.445406840208301,-22.170001016197773C-7.84769253692515,-22.397693403841316,-7.240765157594446,-22.601200585348423,-6.626608825035371,-22.7798572698516C-6.012452492476297,-22.95851395435478,-5.391067206688851,-23.11232014185403,-4.764484355227824,-23.24077302035448C-4.137901503766798,-23.36922589885493,-3.5061210866321906,-23.472325468356573,-2.8712084743856847,-23.5497346832499C-2.2362958621391784,-23.627143898143228,-1.5982510547807744,-23.678862758428238,-0.9591599019607809,-23.70472218857074C-0.3200687491407873,-23.73058161871325,0.32006874914079547,-23.73058161871325,0.959159901960788,-23.704722188570745C1.5982510547807807,-23.678862758428238,2.2362958621391833,-23.627143898143228,2.8712084743856874,-23.549734683249902C3.5061210866321915,-23.472325468356573,4.137901503766798,-23.36922589885493,4.764484355227824,-23.24077302035448C5.3910672066888505,-23.11232014185403,6.012452492476298,-22.95851395435478,6.6266088250353725,-22.779857269851597C7.240765157594448,-22.601200585348423,7.847692536925152,-22.397693403841316,8.445406840208305,-22.170001016197773C9.043121143491456,-21.94230862855423,9.631622370727058,-21.690431034774242,10.208986636531385,-21.41519165475693C10.786350902335714,-21.139952274739624,11.352578206708769,-20.841351108484993,11.905817480554461,-20.520364321194965C12.459056754400152,-20.199377533904936,12.999307997718478,-19.856005125579514,13.52480506046174,-19.49136962430696C14.050302123205,-19.126734123034403,14.561045005373193,-18.740835528814717,15.055364023505405,-18.334935393248234C15.549683041637612,-17.929035257681747,16.027578195733838,-17.503133580768466,16.48748718573528,-17.058622689275428C16.947396175736717,-16.61411179778239,17.389319001643372,-16.150991691709592,17.811810961513853,-15.670776369604102C18.234302921384337,-15.190561047498612,18.637364015218647,-14.693250509360428,19.01967658502172,-14.180470526608907C19.401989154824793,-13.667690543857383,19.76355320059663,-13.13944111649252,20.103186723471723,-12.597449159098746C20.442820246346816,-12.05545720170497,20.760523246325167,-11.499722714282282,21.05525711188018,-10.932062463573214C21.349990977435198,-10.364402212864146,21.621755708566873,-9.7848161988687,21.757638074132714,-9.495023191870978L21.893520439698552,-9.205230184873255"
              class="shot-chart-court-3pt-line" transform="translate(25, 32.625)"></path>
        <line class="shot-chart-court-3pt-line" x1="47" y1="23.375" x2="47" y2="37.375"></line>
        <line class="shot-chart-court-3pt-line" x1="3" y1="23.375" x2="3" y2="37.375"></line>
        <path d="M-4,-4.898587196589413e-16L-3.9960919714362393,-0.07207934561596167C-3.9921839428724795,-0.14415869123192288,-3.984367885744959,-0.28831738246384525,-3.968781589551683,-0.43163100927119463C-3.953195293358408,-0.5749446360785441,-3.929838758099377,-0.7174131984613206,-3.8988489007850053,-0.8582015396026794C-3.867859043470634,-0.9989898807440383,-3.829235864100921,-1.1380980006439796,-3.7832057734081683,-1.2747104415434733C-3.737175682715415,-1.4113228824429669,-3.683738680699621,-1.545439644342013,-3.623208017356146,-1.676274529036041C-3.56267735401267,-1.807109413730069,-3.495053029341513,-1.9346624212190786,-3.4207314600313046,-2.0581858303080787C-3.3464098907210955,-2.1817092393970787,-3.2653910767718353,-2.3012030500860696,-3.1781499539421967,-2.415966784537004C-3.0909088311125577,-2.530730518987938,-2.9974453994025403,-2.6407641772008157,-2.8983075454533296,-2.74542273715673C-2.799169691504119,-2.850081297112644,-2.694357415315715,-2.949364758811595,-2.5844851309418826,-3.04269111834724C-2.47461284656805,-3.1360174778828847,-2.3596805540087895,-3.2233867352552235,-2.2403619912874313,-3.304286728134148C-2.1210434285660726,-3.385186721013072,-1.9973385956826162,-3.4596174493985816,-1.8699726556676377,-3.5271425971718484C-1.7426067156526592,-3.594667744945116,-1.6115796685061585,-3.655287312106141,-1.4776596003924458,-3.7086459441549406C-1.3437395322787329,-3.762004576203741,-1.2069264431978082,-3.808102273140316,-1.0680223373397084,-3.846668808290139C-0.9291182314816085,-3.8852353434399625,-0.7881231088463337,-3.9162707168030333,-0.645863488883798,-3.9395929976909674C-0.5036038689212623,-3.9629152785789015,-0.36007975163146566,-3.978524466991699,-0.2161324815393441,-3.9863290611980973C-0.07218521144722254,-3.9941336554044957,0.07218521144722395,-3.9941336554044953,0.21613248153934533,-3.986329061198097C0.36007975163146677,-3.978524466991698,0.5036038689212631,-3.962915278578901,0.6458634888837984,-3.9395929976909674C0.7881231088463339,-3.9162707168030337,0.9291182314816084,-3.8852353434399625,1.0680223373397082,-3.8466688082901395C1.206926443197808,-3.8081022731403165,1.343739532278733,-3.762004576203741,1.477659600392446,-3.7086459441549406C1.611579668506159,-3.6552873121061404,1.7426067156526597,-3.5946677449451157,1.8699726556676382,-3.5271425971718484C1.9973385956826168,-3.4596174493985816,2.121043428566073,-3.385186721013072,2.2403619912874313,-3.3042867281341475C2.35968055400879,-3.2233867352552235,2.47461284656805,-3.136017477882884,2.5844851309418826,-3.0426911183472396C2.6943574153157144,-2.9493647588115945,2.799169691504119,-2.850081297112644,2.8983075454533296,-2.74542273715673C2.9974453994025403,-2.6407641772008157,3.090908831112558,-2.5307305189879377,3.1781499539421967,-2.4159667845370034C3.2653910767718357,-2.301203050086069,3.346409890721096,-2.1817092393970787,3.4207314600313046,-2.0581858303080782C3.4950530293415136,-1.9346624212190782,3.5626773540126706,-1.8071094137300685,3.6232080173561463,-1.6762745290360406C3.683738680699622,-1.5454396443420126,3.7371756827154154,-1.4113228824429664,3.7832057734081688,-1.274710441543473C3.829235864100922,-1.1380980006439791,3.8678590434706344,-0.9989898807440378,3.8988489007850053,-0.858201539602679C3.929838758099377,-0.7174131984613201,3.953195293358408,-0.5749446360785437,3.968781589551683,-0.43163100927119424C3.984367885744959,-0.2883173824638448,3.9921839428724795,-0.1441586912319224,3.9960919714362393,-0.0720793456159612L4,0"
              class="shot-chart-court-restricted-area" transform="translate(25, 32.625)"></path>
        <path d="M-6,-7.347880794884119e-16L-5.99413795715436,-0.10811901842394253C-5.988275914308719,-0.21623803684788434,-5.976551828617438,-0.4324760736957679,-5.953172384327525,-0.647446513906792C-5.929792940037611,-0.8624169541178162,-5.894758137149066,-1.0761197976919807,-5.848273351177508,-1.287302309404019C-5.8017885652059515,-1.4984848211160573,-5.743853796151383,-1.707147000965969,-5.6748086601122525,-1.9120656623152097C-5.605763524073122,-2.1169843236644503,-5.525608021049432,-2.31815946651302,-5.434812026034218,-2.5144117935540615C-5.344016031019005,-2.710664120595103,-5.242579544012269,-2.901993631828618,-5.131097190046956,-3.0872787454621182C-5.019614836081644,-3.2725638590956185,-4.898086615157753,-3.4518045751291044,-4.767224930913295,-3.623950176805506C-4.636363246668837,-3.796095778481907,-4.49616809910381,-3.9611462658012235,-4.347461318179994,-4.118134105735095C-4.198754537256178,-4.275121945668966,-4.0415361229735725,-4.424047138217392,-3.876727696412824,-4.56403667752086C-3.7119192698520753,-4.704026216824326,-3.5395208310131845,-4.835080102882834,-3.3605429869311467,-4.956430092201222C-3.181565142849109,-5.077780081519608,-2.9960078935239247,-5.189426174097873,-2.804958983501457,-5.290713895757774C-2.613910073478989,-5.392001617417675,-2.4173695027592377,-5.482930968159211,-2.216489400588668,-5.5629689162324105C-2.0156092984180995,-5.643006864305611,-1.8103896647967122,-5.712153409710474,-1.6020335060095625,-5.770003212435209C-1.3936773472224129,-5.827853015159944,-1.1821846632695006,-5.87440607520455,-0.9687952333256971,-5.909389496536451C-0.7554058033818934,-5.9443729178683515,-0.5401196274471985,-5.967786700487547,-0.3241987223090162,-5.979493591797145C-0.10827781717083385,-5.991200483106743,0.10827781717083589,-5.991200483106743,0.32419872230901803,-5.979493591797145C0.5401196274472001,-5.967786700487547,0.7554058033818946,-5.9443729178683515,0.9687952333256977,-5.909389496536451C1.182184663269501,-5.874406075204551,1.3936773472224127,-5.827853015159944,1.6020335060095625,-5.77000321243521C1.8103896647967122,-5.712153409710474,2.0156092984180995,-5.643006864305611,2.216489400588669,-5.5629689162324105C2.4173695027592386,-5.482930968159211,2.6139100734789897,-5.392001617417674,2.8049589835014572,-5.290713895757774C2.996007893523925,-5.189426174097873,3.1815651428491094,-5.077780081519608,3.360542986931147,-4.956430092201221C3.5395208310131845,-4.835080102882834,3.7119192698520753,-4.704026216824326,3.876727696412824,-4.564036677520859C4.041536122973572,-4.424047138217392,4.198754537256178,-4.275121945668966,4.3474613181799935,-4.118134105735095C4.49616809910381,-3.961146265801223,4.636363246668836,-3.7960957784819067,4.7672249309132955,-3.6239501768055056C4.898086615157753,-3.451804575129104,5.019614836081644,-3.2725638590956176,5.131097190046957,-3.0872787454621173C5.242579544012271,-2.901993631828617,5.344016031019006,-2.7106641205951028,5.434812026034219,-2.514411793554061C5.5256080210494325,-2.318159466513019,5.605763524073124,-2.11698432366445,5.674808660112253,-1.9120656623152095C5.743853796151383,-1.7071470009659686,5.8017885652059515,-1.4984848211160569,5.848273351177509,-1.2873023094040184C5.894758137149066,-1.07611979769198,5.929792940037611,-0.8624169541178155,5.953172384327525,-0.6474465139067913C5.976551828617438,-0.43247607369576724,5.988275914308719,-0.21623803684788362,5.99413795715436,-0.10811901842394181L6,0"
              class="shot-chart-court-ft-circle-top" transform="translate(25, 18.375)"></path>
        <path d="M6,0L5.99413795715436,0.10811901842394181C5.988275914308719,0.21623803684788362,5.976551828617438,0.43247607369576724,5.953172384327525,0.6474465139067911C5.929792940037611,0.862416954117815,5.894758137149066,1.0761197976919792,5.848273351177509,1.2873023094040172C5.8017885652059515,1.4984848211160555,5.743853796151383,1.7071470009659673,5.674808660112253,1.9120656623152077C5.605763524073124,2.116984323664448,5.525608021049433,2.3181594665130167,5.43481202603422,2.5144117935540584C5.344016031019007,2.7106641205951,5.242579544012271,2.9019936318286144,5.131097190046957,3.0872787454621156C5.019614836081645,3.2725638590956168,4.898086615157753,3.4518045751291044,4.767224930913295,3.623950176805506C4.636363246668837,3.7960957784819076,4.496168099103811,3.9611462658012235,4.347461318179995,4.118134105735095C4.198754537256179,4.275121945668966,4.0415361229735725,4.424047138217392,3.876727696412824,4.564036677520859C3.7119192698520753,4.704026216824326,3.5395208310131845,4.835080102882834,3.3605429869311467,4.95643009220122C3.1815651428491094,5.077780081519608,2.996007893523925,5.189426174097872,2.8049589835014572,5.290713895757774C2.6139100734789893,5.392001617417675,2.4173695027592377,5.482930968159211,2.216489400588668,5.5629689162324105C2.0156092984180987,5.643006864305612,1.8103896647967117,5.712153409710474,1.602033506009562,5.77000321243521C1.3936773472224122,5.827853015159944,1.1821846632695001,5.874406075204551,0.9687952333256971,5.909389496536451C0.7554058033818941,5.9443729178683515,0.5401196274472005,5.967786700487547,0.32419872230901825,5.979493591797145C0.10827781717083589,5.991200483106743,-0.10827781717083518,5.991200483106743,-0.3241987223090175,5.979493591797145C-0.5401196274471999,5.967786700487547,-0.7554058033818934,5.9443729178683515,-0.968795233325696,5.909389496536451C-1.1821846632694983,5.874406075204551,-1.3936773472224098,5.827853015159944,-1.6020335060095596,5.77000321243521C-1.8103896647967093,5.712153409710475,-2.0156092984180973,5.643006864305612,-2.216489400588667,5.562968916232412C-2.417369502759236,5.482930968159212,-2.613910073478987,5.392001617417675,-2.8049589835014546,5.290713895757774C-2.996007893523923,5.189426174097873,-3.1815651428491085,5.077780081519608,-3.3605429869311463,4.956430092201222C-3.5395208310131845,4.835080102882834,-3.7119192698520753,4.704026216824326,-3.8767276964128237,4.564036677520859C-4.041536122973572,4.424047138217393,-4.198754537256177,4.275121945668967,-4.3474613181799935,4.118134105735096C-4.496168099103809,3.961146265801225,-4.636363246668835,3.796095778481909,-4.767224930913294,3.623950176805507C-4.8980866151577525,3.4518045751291053,-5.019614836081644,3.2725638590956176,-5.131097190046958,3.0872787454621164C-5.242579544012271,2.901993631828616,-5.344016031019006,2.7106641205951023,-5.434812026034219,2.5144117935540606C-5.5256080210494325,2.318159466513019,-5.605763524073123,2.1169843236644486,-5.674808660112253,1.9120656623152072C-5.743853796151384,1.7071470009659657,-5.801788565205952,1.498484821116053,-5.848273351177509,1.287302309404015C-5.894758137149067,1.0761197976919765,-5.929792940037612,0.8624169541178127,-5.953172384327525,0.6474465139067894C-5.976551828617438,0.43247607369576613,-5.988275914308719,0.21623803684788345,-5.99413795715436,0.10811901842394209L-6,7.347880794884119e-16"
              class="shot-chart-court-ft-circle-bottom" transform="translate(25, 18.375)"></path>
        <line class="shot-chart-court-key-mark" x1="33.5" y1="30.375" x2="33" y2="30.375"></line>
        <line class="shot-chart-court-key-mark" x1="16.5" y1="30.375" x2="17" y2="30.375"></line>
        <line class="shot-chart-court-key-mark" x1="33.5" y1="29.375" x2="33" y2="29.375"></line>
        <line class="shot-chart-court-key-mark" x1="16.5" y1="29.375" x2="17" y2="29.375"></line>
        <line class="shot-chart-court-key-mark" x1="33.5" y1="26.375" x2="33" y2="26.375"></line>
        <line class="shot-chart-court-key-mark" x1="16.5" y1="26.375" x2="17" y2="26.375"></line>
        <line class="shot-chart-court-key-mark" x1="33.5" y1="23.375" x2="33" y2="23.375"></line>
        <line class="shot-chart-court-key-mark" x1="16.5" y1="23.375" x2="17" y2="23.375"></line>
        <line class="shot-chart-court-backboard" x1="22" y1="33.375" x2="28" y2="33.375"></line>
        <circle class="shot-chart-court-hoop" cx="25" cy="32.625" r="0.75"></circle>
        <circle cx="15.299999999999997" cy="10.2" r="0.3" style="fill: red;"></circle>
        <circle cx="45.4" cy="18.4" r="0.3" style="fill: red;"></circle>
        <circle cx="36.5" cy="15.5" r="0.3" style="fill: red;"></circle>
        <circle cx="0.5" cy="34.1" r="0.3" style="fill: green;"></circle>
        <circle cx="42.3" cy="13.2" r="0.3" style="fill: green;"></circle>
        <circle cx="11" cy="11.5" r="0.3" style="fill: green;"></circle>
        <circle cx="24.6" cy="7.800000000000001" r="0.3" style="fill: green;"></circle>
        <circle cx="7.399999999999999" cy="13.7" r="0.3" style="fill: red;"></circle>
        <circle cx="20.3" cy="30.9" r="0.3" style="fill: red;"></circle>
        <circle cx="47.5" cy="33.1" r="0.3" style="fill: green;"></circle>
        <circle cx="30" cy="18.1" r="0.3" style="fill: green;"></circle>
        <circle cx="47" cy="20.1" r="0.3" style="fill: red;"></circle>
        <circle cx="32.9" cy="7.300000000000001" r="0.3" style="fill: red;"></circle>
        <circle cx="9" cy="17.6" r="0.3" style="fill: red;"></circle>
        <circle cx="19.4" cy="8.600000000000001" r="0.3" style="fill: green;"></circle>
        <circle cx="26.4" cy="17.6" r="0.3" style="fill: red;"></circle>
        <circle cx="48.6" cy="22.8" r="0.3" style="fill: red;"></circle>
        <circle cx="12.200000000000003" cy="11.7" r="0.3" style="fill: red;"></circle>
        <circle cx="42.4" cy="14" r="0.3" style="fill: red;"></circle>
        <circle cx="13.100000000000001" cy="10.7" r="0.3" style="fill: red;"></circle>
        <circle cx="17.1" cy="9.7" r="0.3" style="fill: red;"></circle>
        <circle cx="45" cy="18.6" r="0.3" style="fill: red;"></circle>
        <circle cx="45" cy="17.1" r="0.3" style="fill: red;"></circle>
        <circle cx="42.9" cy="15.100000000000001" r="0.3" style="fill: green;"></circle>
        <circle cx="11.299999999999997" cy="11.2" r="0.3" style="fill: green;"></circle>
        <circle cx="6.899999999999999" cy="15.5" r="0.3" style="fill: red;"></circle>
        <circle cx="14.100000000000001" cy="30.4" r="0.3" style="fill: green;"></circle>
        <circle cx="27.5" cy="7.600000000000001" r="0.3" style="fill: green;"></circle>
        <circle cx="24.1" cy="6.800000000000001" r="0.3" style="fill: red;"></circle>
        <circle cx="49" cy="33.6" r="0.3" style="fill: green;"></circle>
        <circle cx="40.8" cy="10.600000000000001" r="0.3" style="fill: green;"></circle>
        <circle cx="13.600000000000001" cy="24" r="0.3" style="fill: red;"></circle>
        <circle cx="18.5" cy="15.600000000000001" r="0.3" style="fill: red;"></circle>
        <circle cx="10.200000000000003" cy="12.2" r="0.3" style="fill: red;"></circle>
        <circle cx="48" cy="33.6" r="0.3" style="fill: red;"></circle>
        <circle cx="25.2" cy="31.8" r="0.3" style="fill: red;"></circle>
        <circle cx="49.3" cy="27.4" r="0.3" style="fill: green;"></circle>
        <circle cx="23.6" cy="7.600000000000001" r="0.3" style="fill: red;"></circle>
        <circle cx="13.600000000000001" cy="10.100000000000001" r="0.3" style="fill: green;"></circle>
        <circle cx="48.8" cy="33.6" r="0.3" style="fill: green;"></circle>
        <circle cx="1.7000000000000028" cy="29.4" r="0.3" style="fill: red;"></circle>
        <circle cx="13.5" cy="29.9" r="0.3" style="fill: red;"></circle>
        <circle cx="43.4" cy="14" r="0.3" style="fill: red;"></circle>
        <circle cx="14.799999999999997" cy="9.7" r="0.3" style="fill: red;"></circle>
        <circle cx="9.700000000000003" cy="12.7" r="0.3" style="fill: green;"></circle>
        <circle cx="47.3" cy="27.4" r="0.3" style="fill: red;"></circle>
        <circle cx="1.7999999999999972" cy="34.1" r="0.3" style="fill: red;"></circle>
        <circle cx="7.100000000000001" cy="15" r="0.3" style="fill: red;"></circle>
        <circle cx="1" cy="29.2" r="0.3" style="fill: red;"></circle>
        <circle cx="23.9" cy="6.800000000000001" r="0.3" style="fill: red;"></circle>
        <circle cx="43.9" cy="15.100000000000001" r="0.3" style="fill: green;"></circle>
        <circle cx="46.5" cy="19.6" r="0.3" style="fill: red;"></circle>
        <circle cx="48.6" cy="30.4" r="0.3" style="fill: red;"></circle>
        <circle cx="13.600000000000001" cy="7.600000000000001" r="0.3" style="fill: red;"></circle>
        <circle cx="9.700000000000003" cy="31.8" r="0.3" style="fill: red;"></circle>
        <circle cx="1.2000000000000028" cy="33.1" r="0.3" style="fill: red;"></circle>
        <circle cx="44.4" cy="16.6" r="0.3" style="fill: red;"></circle>
        <circle cx="7.100000000000001" cy="12.5" r="0.3" style="fill: red;"></circle>
        <circle cx="30" cy="7.300000000000001" r="0.3" style="fill: green;"></circle>
        <circle cx="43.4" cy="32.6" r="0.3" style="fill: green;"></circle>
        <circle cx="2.200000000000003" cy="32.6" r="0.3" style="fill: green;"></circle>
        <circle cx="23.5" cy="6.300000000000001" r="0.3" style="fill: green;"></circle>
        <circle cx="9.700000000000003" cy="13.7" r="0.3" style="fill: green;"></circle>
        <circle cx="39.6" cy="14.7" r="0.3" style="fill: green;"></circle>
        <circle cx="25.6" cy="7.800000000000001" r="0.3" style="fill: red;"></circle>
        <circle cx="45.2" cy="33.6" r="0.3" style="fill: red;"></circle>
        <circle cx="48.3" cy="30.9" r="0.3" style="fill: red;"></circle>
        <circle cx="44.6" cy="33" r="0.3" style="fill: red;"></circle>
        <circle cx="12.299999999999997" cy="11.100000000000001" r="0.3" style="fill: red;"></circle>
        <circle cx="26.2" cy="32.2" r="0.3" style="fill: green;"></circle>
        <circle cx="30.6" cy="20.9" r="0.3" style="fill: green;"></circle>
        <circle cx="23.9" cy="7.800000000000001" r="0.3" style="fill: green;"></circle>
        <circle cx="10.799999999999997" cy="12.5" r="0.3" style="fill: red;"></circle>
        <circle cx="11.700000000000003" cy="12" r="0.3" style="fill: red;"></circle>
        <circle cx="35.9" cy="30.9" r="0.3" style="fill: red;"></circle>
        <circle cx="10.200000000000003" cy="31.7" r="0.3" style="fill: red;"></circle>
        <circle cx="39" cy="12.2" r="0.3" style="fill: red;"></circle>
        <circle cx="7.200000000000003" cy="13.5" r="0.3" style="fill: green;"></circle>
        <circle cx="47.5" cy="34" r="0.3" style="fill: red;"></circle>
        <circle cx="47.5" cy="21.4" r="0.3" style="fill: red;"></circle>
        <circle cx="41.6" cy="14" r="0.3" style="fill: red;"></circle>
        <circle cx="7.399999999999999" cy="15" r="0.3" style="fill: red;"></circle>
        <circle cx="26.1" cy="32.2" r="0.3" style="fill: green;"></circle>
        <circle cx="10" cy="15.600000000000001" r="0.3" style="fill: green;"></circle>
        <circle cx="7.399999999999999" cy="13.7" r="0.3" style="fill: red;"></circle>
        <circle cx="8.100000000000001" cy="14.5" r="0.3" style="fill: green;"></circle>
        <circle cx="44.1" cy="15.5" r="0.3" style="fill: green;"></circle>
        <circle cx="14.299999999999997" cy="31.8" r="0.3" style="fill: green;"></circle>
        <circle cx="10.399999999999999" cy="24.5" r="0.3" style="fill: green;"></circle>
        <circle cx="5.399999999999999" cy="17.6" r="0.3" style="fill: red;"></circle>
        <circle cx="24.4" cy="7.800000000000001" r="0.3" style="fill: green;"></circle>
        <circle cx="48.2" cy="21.4" r="0.3" style="fill: red;"></circle>
        <circle cx="36.7" cy="10.7" r="0.3" style="fill: red;"></circle>
        <circle cx="41.3" cy="14.5" r="0.3" style="fill: red;"></circle>
        <circle cx="48.3" cy="33.1" r="0.3" style="fill: red;"></circle>
        <circle cx="36.7" cy="10.7" r="0.3" style="fill: red;"></circle>
        <circle cx="41.3" cy="14.5" r="0.3" style="fill: red;"></circle>
        <circle cx="48.3" cy="33.1" r="0.3" style="fill: red;"></circle>
        <circle cx="46.2" cy="26.8" r="0.3" style="fill: green;"></circle>
        <circle cx="13.5" cy="30.7" r="0.3" style="fill: red;"></circle>
        <circle cx="12.5" cy="10.2" r="0.3" style="fill: red;"></circle>
        <circle cx="1" cy="33" r="0.3" style="fill: green;"></circle>
        <circle cx="19.5" cy="13.7" r="0.3" style="fill: green;"></circle>
        <circle cx="10" cy="29.7" r="0.3" style="fill: red;"></circle>
        <circle cx="40.8" cy="13.5" r="0.3" style="fill: red;"></circle>
        <circle cx="24.4" cy="32.4" r="0.3" style="fill: green;"></circle>
        <circle cx="5.100000000000001" cy="28.9" r="0.3" style="fill: red;"></circle>
        <circle cx="6.799999999999997" cy="15" r="0.3" style="fill: green;"></circle>
        <circle cx="6.799999999999997" cy="14.2" r="0.3" style="fill: red;"></circle>
        <circle cx="0.5" cy="30.9" r="0.3" style="fill: green;"></circle>
        <circle cx="8.100000000000001" cy="13.5" r="0.3" style="fill: green;"></circle>
        <circle cx="21.2" cy="7.800000000000001" r="0.3" style="fill: green;"></circle>
        <circle cx="3.299999999999997" cy="16.9" r="0.3" style="fill: red;"></circle>
        <circle cx="33.4" cy="23" r="0.3" style="fill: red;"></circle>
        <circle cx="39.8" cy="9.3" r="0.3" style="fill: green;"></circle>
        <circle cx="27.5" cy="7.300000000000001" r="0.3" style="fill: green;"></circle>
        <circle cx="14.799999999999997" cy="10.100000000000001" r="0.3" style="fill: red;"></circle>
        <circle cx="48.8" cy="31.4" r="0.3" style="fill: red;"></circle>
        <circle cx="48.5" cy="32.6" r="0.3" style="fill: green;"></circle>
        <circle cx="17.6" cy="9.3" r="0.3" style="fill: green;"></circle>
        <circle cx="13.5" cy="8.8" r="0.3" style="fill: red;"></circle>
        <circle cx="11" cy="11.2" r="0.3" style="fill: red;"></circle>
        <circle cx="35.1" cy="8.100000000000001" r="0.3" style="fill: green;"></circle>
        <circle cx="49" cy="33.6" r="0.3" style="fill: red;"></circle>
        <circle cx="24.5" cy="32.4" r="0.3" style="fill: green;"></circle>
        <circle cx="33.6" cy="5.800000000000001" r="0.3" style="fill: red;"></circle>
        <circle cx="17.1" cy="7.100000000000001" r="0.3" style="fill: green;"></circle>
        <circle cx="47.5" cy="33.5" r="0.3" style="fill: green;"></circle>
        <circle cx="48.2" cy="32.6" r="0.3" style="fill: green;"></circle>
        <circle cx="4.299999999999997" cy="25" r="0.3" style="fill: red;"></circle>
        <circle cx="34.9" cy="19.1" r="0.3" style="fill: green;"></circle>
        <circle cx="16.6" cy="30.9" r="0.3" style="fill: green;"></circle>
        <circle cx="43.1" cy="15" r="0.3" style="fill: red;"></circle>
        <circle cx="11.700000000000003" cy="7.800000000000001" r="0.3" style="fill: red;"></circle>
        <circle cx="40.1" cy="24.5" r="0.3" style="fill: red;"></circle>
        <circle cx="42.1" cy="14.2" r="0.3" style="fill: red;"></circle>
        <circle cx="7.399999999999999" cy="14.5" r="0.3" style="fill: green;"></circle>
        <circle cx="22.3" cy="23" r="0.3" style="fill: green;"></circle>
        <circle cx="47.7" cy="21" r="0.3" style="fill: red;"></circle>
        <circle cx="10.200000000000003" cy="34.1" r="0.3" style="fill: green;"></circle>
        <circle cx="39.3" cy="28.4" r="0.3" style="fill: red;"></circle>
    </g>
</svg>